<svg width="154" height="33" viewBox="0 0 154 33" fill="none" xmlns="http://www.w3.org/2000/svg">
<path d="M129.293 16.548C129.293 18.284 129.629 19.824 130.301 21.168C131.001 22.484 131.967 23.52 133.199 24.276C134.459 25.032 135.929 25.41 137.609 25.41C139.261 25.41 140.703 25.032 141.935 24.276C143.195 23.52 144.161 22.484 144.833 21.168C145.533 19.824 145.883 18.284 145.883 16.548C145.883 14.812 145.547 13.286 144.875 11.97C144.203 10.626 143.251 9.576 142.019 8.82C140.787 8.064 139.317 7.686 137.609 7.686C135.929 7.686 134.459 8.064 133.199 8.82C131.967 9.576 131.001 10.626 130.301 11.97C129.629 13.286 129.293 14.812 129.293 16.548ZM121.775 16.548C121.775 14.28 122.167 12.208 122.951 10.332C123.763 8.456 124.883 6.832 126.311 5.46C127.739 4.088 129.419 3.038 131.351 2.31C133.283 1.554 135.369 1.176 137.609 1.176C139.877 1.176 141.963 1.554 143.867 2.31C145.799 3.038 147.479 4.088 148.907 5.46C150.335 6.832 151.441 8.456 152.225 10.332C153.009 12.208 153.401 14.28 153.401 16.548C153.401 18.816 153.009 20.902 152.225 22.806C151.469 24.71 150.377 26.362 148.949 27.762C147.549 29.162 145.883 30.254 143.951 31.038C142.019 31.794 139.905 32.172 137.609 32.172C135.285 32.172 133.157 31.794 131.225 31.038C129.293 30.254 127.613 29.162 126.185 27.762C124.785 26.362 123.693 24.71 122.909 22.806C122.153 20.902 121.775 18.816 121.775 16.548Z" fill="white"/>
<path d="M102.853 31.248V25.41H117.679V31.248H102.853ZM102.853 7.686V1.848H117.679V7.686H102.853ZM102.853 18.648V12.936H116.839V18.648H102.853ZM98.1489 1.848H104.953V31.248H98.1489V1.848Z" fill="white"/>
<path d="M74.7475 16.548C74.7475 18.34 75.1535 19.894 75.9655 21.21C76.7775 22.498 77.8415 23.478 79.1575 24.15C80.5015 24.822 81.9715 25.158 83.5675 25.158C84.9675 25.158 86.1995 24.976 87.2635 24.612C88.3275 24.248 89.2795 23.772 90.1195 23.184C90.9595 22.596 91.7015 21.966 92.3455 21.294V28.938C91.1695 29.862 89.8815 30.59 88.4815 31.122C87.0815 31.654 85.3035 31.92 83.1475 31.92C80.7955 31.92 78.6255 31.556 76.6375 30.828C74.6495 30.1 72.9415 29.05 71.5135 27.678C70.0855 26.306 68.9795 24.682 68.1955 22.806C67.4115 20.93 67.0195 18.844 67.0195 16.548C67.0195 14.252 67.4115 12.166 68.1955 10.29C68.9795 8.414 70.0855 6.79 71.5135 5.418C72.9415 4.046 74.6495 2.996 76.6375 2.268C78.6255 1.54 80.7955 1.176 83.1475 1.176C85.3035 1.176 87.0815 1.442 88.4815 1.974C89.8815 2.506 91.1695 3.234 92.3455 4.158V11.802C91.7015 11.13 90.9595 10.5 90.1195 9.912C89.2795 9.296 88.3275 8.82 87.2635 8.484C86.1995 8.12 84.9675 7.938 83.5675 7.938C81.9715 7.938 80.5015 8.274 79.1575 8.946C77.8415 9.618 76.7775 10.598 75.9655 11.886C75.1535 13.174 74.7475 14.728 74.7475 16.548Z" fill="white"/>
<path d="M43.7063 25.578L44.2103 20.16H58.7843L59.2463 25.578H43.7063ZM51.3923 12.642L47.2763 22.134L47.6123 23.688L43.9583 31.248H35.9363L51.3923 0L66.8903 31.248H58.8263L55.2983 23.982L55.5503 22.176L51.3923 12.642Z" fill="white"/>
<path d="M9.24 16.254L7.476 31.248H0L4.746 0.377998L17.262 18.312L29.82 0.377998L34.566 31.248H27.09L25.326 16.254L17.262 28.518L9.24 16.254Z" fill="white"/>
</svg>
