<svg width="65" height="52" viewBox="0 0 65 52" fill="none" xmlns="http://www.w3.org/2000/svg">
<path d="M58.9861 4.56168C54.6799 6.32765 50.9791 9.10742 47.8841 12.901C44.7889 16.6292 43.2414 20.4227 43.2414 24.2816C43.2414 25.9168 43.4433 27.3231 43.847 28.5003C46.2019 26.7344 48.7587 25.8514 51.5175 25.8514C55.2854 25.8514 58.4142 27.0288 60.9037 29.3834C63.4606 31.6726 64.739 34.7794 64.739 38.7037C64.739 42.3665 63.4606 45.4406 60.9037 47.926C58.3469 50.346 55.2182 51.5561 51.5175 51.5561C46.2019 51.5561 42.1312 49.4303 39.3053 45.179C36.9502 41.647 35.7728 37.2321 35.7728 31.9342C35.7728 25.1974 37.5222 19.1799 41.021 13.8821C44.5872 8.51876 49.9363 4.20196 57.0685 0.931641L58.9861 4.56168ZM23.8632 4.56168C19.557 6.32765 15.8564 9.10742 12.7612 12.901C9.66612 16.6292 8.11856 20.4227 8.11856 24.2816C8.11856 25.9168 8.32041 27.3231 8.72412 28.5003C11.0118 26.7344 13.5687 25.8514 16.3946 25.8514C20.0953 25.8514 23.224 27.0288 25.7809 29.3834C28.3377 31.6726 29.6161 34.7794 29.6161 38.7037C29.6161 41.1238 29.0106 43.3149 27.7995 45.2771C26.5883 47.2392 24.9734 48.7762 22.9549 49.8882C20.9364 51.0001 18.7497 51.5561 16.3946 51.5561C11.0791 51.5561 7.00835 49.4303 4.18238 45.179C1.82739 41.647 0.649902 37.2321 0.649902 31.9342C0.649902 25.1974 2.39931 19.1799 5.89815 13.8821C9.46425 8.51876 14.8134 4.20196 21.9456 0.931641L23.8632 4.56168Z" fill="#0B0B0B"/>
</svg>
